<svg width="300" height="200" xmlns="http://www.w3.org/2000/svg">
  <defs>
    <linearGradient id="grad1" x1="0%" y1="0%" x2="100%" y2="0%">
      <stop offset="0%" style="stop-color:#3498db;stop-opacity:1" />
      <stop offset="100%" style="stop-color:#2980b9;stop-opacity:1" />
    </linearGradient>
  </defs>
  
  <!-- Background -->
  <rect width="300" height="200" fill="#f8f9fa"/>
  
  <!-- Title -->
  <text x="150" y="20" text-anchor="middle" font-family="Arial" font-size="14" font-weight="bold" fill="#2c3e50">Global Carbon Flux Trends</text>
  
  <!-- Axes -->
  <line x1="50" y1="170" x2="270" y2="170" stroke="#34495e" stroke-width="2"/>
  <line x1="50" y1="170" x2="50" y2="40" stroke="#34495e" stroke-width="2"/>
  
  <!-- Data line -->
  <polyline points="50,160 80,140 110,120 140,100 170,85 200,75 230,70 260,65" 
            fill="none" stroke="url(#grad1)" stroke-width="3"/>
  
  <!-- Data points -->
  <circle cx="50" cy="160" r="4" fill="#e74c3c"/>
  <circle cx="80" cy="140" r="4" fill="#e74c3c"/>
  <circle cx="110" cy="120" r="4" fill="#e74c3c"/>
  <circle cx="140" cy="100" r="4" fill="#e74c3c"/>
  <circle cx="170" cy="85" r="4" fill="#e74c3c"/>
  <circle cx="200" cy="75" r="4" fill="#e74c3c"/>
  <circle cx="230" cy="70" r="4" fill="#e74c3c"/>
  <circle cx="260" cy="65" r="4" fill="#e74c3c"/>
  
  <!-- Axis labels -->
  <text x="160" y="190" text-anchor="middle" font-family="Arial" font-size="12" fill="#7f8c8d">Years (2000-2020)</text>
  <text x="25" y="105" text-anchor="middle" font-family="Arial" font-size="12" fill="#7f8c8d" transform="rotate(-90 25 105)">CO₂ Flux (GtC/yr)</text>
  
  <!-- Legend -->
  <text x="60" y="55" font-family="Arial" font-size="11" fill="#2c3e50">Ecosystem Carbon Uptake</text>
</svg>