<svg width="300" height="200" xmlns="http://www.w3.org/2000/svg">
  <defs>
    <linearGradient id="tempGrad" x1="0%" y1="0%" x2="0%" y2="100%">
      <stop offset="0%" style="stop-color:#e74c3c;stop-opacity:0.8" />
      <stop offset="100%" style="stop-color:#c0392b;stop-opacity:0.8" />
    </linearGradient>
  </defs>
  
  <!-- Background -->
  <rect width="300" height="200" fill="#f8f9fa"/>
  
  <!-- Title -->
  <text x="150" y="20" text-anchor="middle" font-family="Arial" font-size="14" font-weight="bold" fill="#2c3e50">Temperature Anomaly Analysis</text>
  
  <!-- Axes -->
  <line x1="50" y1="170" x2="270" y2="170" stroke="#34495e" stroke-width="2"/>
  <line x1="50" y1="170" x2="50" y2="40" stroke="#34495e" stroke-width="2"/>
  
  <!-- Temperature bars -->
  <rect x="60" y="150" width="15" height="20" fill="url(#tempGrad)"/>
  <rect x="80" y="140" width="15" height="30" fill="url(#tempGrad)"/>
  <rect x="100" y="130" width="15" height="40" fill="url(#tempGrad)"/>
  <rect x="120" y="120" width="15" height="50" fill="url(#tempGrad)"/>
  <rect x="140" y="110" width="15" height="60" fill="url(#tempGrad)"/>
  <rect x="160" y="100" width="15" height="70" fill="url(#tempGrad)"/>
  <rect x="180" y="95" width="15" height="75" fill="url(#tempGrad)"/>
  <rect x="200" y="90" width="15" height="80" fill="url(#tempGrad)"/>
  <rect x="220" y="85" width="15" height="85" fill="url(#tempGrad)"/>
  <rect x="240" y="80" width="15" height="90" fill="url(#tempGrad)"/>
  
  <!-- Axis labels -->
  <text x="160" y="190" text-anchor="middle" font-family="Arial" font-size="12" fill="#7f8c8d">Decade</text>
  <text x="25" y="105" text-anchor="middle" font-family="Arial" font-size="12" fill="#7f8c8d" transform="rotate(-90 25 105)">Temp. Anomaly (°C)</text>
  
  <!-- Values -->
  <text x="67" y="145" text-anchor="middle" font-family="Arial" font-size="9" fill="#2c3e50">1970s</text>
  <text x="147" y="105" text-anchor="middle" font-family="Arial" font-size="9" fill="#2c3e50">2000s</text>
  <text x="247" y="75" text-anchor="middle" font-family="Arial" font-size="9" fill="#2c3e50">2020s</text>
</svg>